<svg version="1.1" id="圖層_1" xmlns="http://www.w3.org/2000/svg" x="0" y="0" viewBox="0 0 50 50" xml:space="preserve"><style>.st0{fill:#425b71}</style><circle class="st0" cx="39.3" cy="21.8" r="4.2"/><path class="st0" d="M42.5 0H7.6C3.4 0 0 3.4 0 7.6v34.8c0 4.2 3.4 7.7 7.7 7.7h34.8c4.2 0 7.7-3.4 7.7-7.7V7.6C50.1 3.4 46.7 0 42.5 0zM16 34.2c-1.1 1.5-2.8 2.4-4.6 2.5h-.7c-1.2 0-3-.6-3-.6l1.1-2.8s1.2.4 1.8.4c1.2 0 2.3-.5 3-1.2l.1-.1c.2-.3.3-.7.4-1 .3-1 .1-2-.6-2.8l-.1-.1c-.6-.5-1.4-.9-2-1.2l-3-1.4c-.7-.3-1.4-.7-2-1.1-1.2-.7-2.2-1.8-2.7-3.1-.2-.4-.2-.8-.3-1.2-.3-1.6.1-3.2 1.2-4.7 1.1-1.5 2.8-2.4 4.6-2.5h.7c1.2 0 2.2.2 3 .6 2.2 1 3.5 3 3.5 3l-2.2 1.7-.1-.1c-.1-.1-.1-.2-.3-.3-.6-.6-1.3-1.2-2-1.5-.5-.3-1.2-.4-1.8-.4-1.2 0-2.3.5-3 1.2l-.1.1c-.2.3-.3.7-.4 1-.3 1-.1 2 .6 2.8l.1.1c.6.5 1.4.9 2 1.2l3 1.4c.7.3 1.4.7 2 1.1 1.2.7 2.2 1.8 2.7 3.1.1.4.2.7.3 1.1.4 1.6-.1 3.3-1.2 4.8zm14.5-16.4h-8.7v5.5h6.5v2.9l-6.3-.1h-.1v6.1h8.7v2.9H20.4c-.4 0-.7-.1-1-.4s-.4-.6-.4-1V16.4c0-.4.1-.7.4-1s.6-.4 1-.4h10.1v2.8zm8.8 11.4c-1.6 0-3.1-.5-4.3-1.4v7.6h-3v-14c.2-3.9 3.4-7 7.3-7 4.1 0 7.4 3.3 7.4 7.4 0 4.1-3.3 7.4-7.4 7.4z"/></svg>